M48
;Layer_Color=9474304
;FILE_FORMAT=4:4
METRIC,LZ
;TYPE=PLATED
T01F00S00C0.7112
T02F00S00C0.7500
T03F00S00C0.9500
T04F00S00C1.0200
%
T01
X0006Y0006
X00115
X00135Y00065
X00245Y0006
X00265Y00085
X00355Y0007
X0033Y0004
X00355Y0010015
X00355Y0016
X00305Y0017
X00255Y00175
X00285Y00115
X00195Y0012
X00145
T02
X000396Y0006015
X00065Y0008555
X000904Y0006015
T03
X0013Y002173
Y002427
X0018
Y002173
X0023
Y002427
X0028
Y002173
X0033
Y002427
X0038
Y002173
X0043
Y002427
X0048
Y002173
X0008
Y002427
X0003
Y002173
T04
X00495Y000646
Y0009
M30
