G04*
G04 #@! TF.GenerationSoftware,Altium Limited,Altium Designer,25.1.2 (22)*
G04*
G04 Layer_Color=32768*
%FSLAX44Y44*%
%MOMM*%
G71*
G04*
G04 #@! TF.SameCoordinates,AD346B73-5CDA-477C-9317-97912F4A6BFF*
G04*
G04*
G04 #@! TF.FilePolarity,Positive*
G04*
G01*
G75*
%ADD34C,0.1000*%
%ADD35C,0.0500*%
D34*
X435000Y95000D02*
Y105000D01*
X430000Y100000D02*
X440000D01*
X435000Y55000D02*
Y65000D01*
X430000Y60000D02*
X440000D01*
X25000Y170000D02*
X35000D01*
X30000Y165000D02*
Y175000D01*
X75000Y170000D02*
X85000D01*
X80000Y165000D02*
Y175000D01*
X125000Y170000D02*
X135000D01*
X130000Y165000D02*
Y175000D01*
X175000Y170000D02*
X185000D01*
X180000Y165000D02*
Y175000D01*
X225000Y170000D02*
X235000D01*
X230000Y165000D02*
Y175000D01*
X275000Y170000D02*
X285000D01*
X280000Y165000D02*
Y175000D01*
X325000Y170000D02*
X335000D01*
X330000Y165000D02*
Y175000D01*
X375000Y170000D02*
X385000D01*
X380000Y165000D02*
Y175000D01*
X425000Y170000D02*
X435000D01*
X430000Y165000D02*
Y175000D01*
X475000Y170000D02*
X485000D01*
X480000Y165000D02*
Y175000D01*
X275000Y95000D02*
Y105000D01*
X270000Y100000D02*
X280000D01*
X185000Y65000D02*
Y75000D01*
X180000Y70000D02*
X190000D01*
X275000Y55000D02*
Y65000D01*
X270000Y60000D02*
X280000D01*
D35*
X421500Y92000D02*
X448500D01*
X421500Y108000D02*
X448500D01*
Y92000D02*
Y108000D01*
X421500Y92000D02*
Y108000D01*
Y52000D02*
X448500D01*
X421500Y68000D02*
X448500D01*
Y52000D02*
Y68000D01*
X421500Y52000D02*
Y68000D01*
X42500Y149000D02*
Y191000D01*
X17500Y149000D02*
Y191000D01*
X42500D01*
X17500Y149000D02*
X42500D01*
X92500D02*
Y191000D01*
X67500Y149000D02*
Y191000D01*
X92500D01*
X67500Y149000D02*
X92500D01*
X142500D02*
Y191000D01*
X117500Y149000D02*
Y191000D01*
X142500D01*
X117500Y149000D02*
X142500D01*
X192500D02*
Y191000D01*
X167500Y149000D02*
Y191000D01*
X192500D01*
X167500Y149000D02*
X192500D01*
X242500D02*
Y191000D01*
X217500Y149000D02*
Y191000D01*
X242500D01*
X217500Y149000D02*
X242500D01*
X292500D02*
Y191000D01*
X267500Y149000D02*
Y191000D01*
X292500D01*
X267500Y149000D02*
X292500D01*
X342500D02*
Y191000D01*
X317500Y149000D02*
Y191000D01*
X342500D01*
X317500Y149000D02*
X342500D01*
X392500D02*
Y191000D01*
X367500Y149000D02*
Y191000D01*
X392500D01*
X367500Y149000D02*
X392500D01*
X442500D02*
Y191000D01*
X417500Y149000D02*
Y191000D01*
X442500D01*
X417500Y149000D02*
X442500D01*
X492500D02*
Y191000D01*
X467500Y149000D02*
Y191000D01*
X492500D01*
X467500Y149000D02*
X492500D01*
X254000Y87500D02*
X296000D01*
X254000Y112500D02*
X296000D01*
Y87500D02*
Y112500D01*
X254000Y87500D02*
Y112500D01*
X132500Y107000D02*
X237500D01*
X132500Y33000D02*
X237500D01*
Y107000D01*
X132500Y33000D02*
Y107000D01*
X254000Y72500D02*
X296000D01*
X254000Y47500D02*
X296000D01*
X254000D02*
Y72500D01*
X296000Y47500D02*
Y72500D01*
M02*
