G04*
G04 #@! TF.GenerationSoftware,Altium Limited,Altium Designer,25.1.2 (22)*
G04*
G04 Layer_Color=32768*
%FSLAX44Y44*%
%MOMM*%
G71*
G04*
G04 #@! TF.SameCoordinates,AD346B73-5CDA-477C-9317-97912F4A6BFF*
G04*
G04*
G04 #@! TF.FilePolarity,Positive*
G04*
G01*
G75*
%ADD11C,0.2000*%
D11*
X30000Y252227D02*
G03*
X30000Y207773I0J-22227D01*
G01*
D02*
G03*
X30000Y252227I0J22227D01*
G01*
X80000D02*
G03*
X80000Y207773I0J-22227D01*
G01*
D02*
G03*
X80000Y252227I0J22227D01*
G01*
X130000D02*
G03*
X130000Y207773I0J-22227D01*
G01*
D02*
G03*
X130000Y252227I0J22227D01*
G01*
X180000D02*
G03*
X180000Y207773I0J-22227D01*
G01*
D02*
G03*
X180000Y252227I0J22227D01*
G01*
X230000D02*
G03*
X230000Y207773I0J-22227D01*
G01*
D02*
G03*
X230000Y252227I0J22227D01*
G01*
X280000D02*
G03*
X280000Y207773I0J-22227D01*
G01*
D02*
G03*
X280000Y252227I0J22227D01*
G01*
X330000D02*
G03*
X330000Y207773I0J-22227D01*
G01*
D02*
G03*
X330000Y252227I0J22227D01*
G01*
X380000D02*
G03*
X380000Y207773I0J-22227D01*
G01*
D02*
G03*
X380000Y252227I0J22227D01*
G01*
X430000D02*
G03*
X430000Y207773I0J-22227D01*
G01*
D02*
G03*
X430000Y252227I0J22227D01*
G01*
X480000D02*
G03*
X480000Y207773I0J-22227D01*
G01*
D02*
G03*
X480000Y252227I0J22227D01*
G01*
X313518Y50475D02*
Y109525D01*
Y50475D02*
X396482D01*
Y109525D01*
X313518D02*
X396482D01*
X480800Y48400D02*
X509200D01*
Y106200D01*
X480800D02*
X509200D01*
X480800Y48400D02*
Y106200D01*
X114900Y10100D02*
Y109900D01*
X15100D02*
X114900D01*
X15100Y10100D02*
Y109900D01*
Y10100D02*
X114900D01*
M02*
