G04*
G04 #@! TF.GenerationSoftware,Altium Limited,Altium Designer,25.1.2 (22)*
G04*
G04 Layer_Color=16711935*
%FSLAX44Y44*%
%MOMM*%
G71*
G04*
G04 #@! TF.SameCoordinates,AD346B73-5CDA-477C-9317-97912F4A6BFF*
G04*
G04*
G04 #@! TF.FilePolarity,Positive*
G04*
G01*
G75*
%ADD34C,0.1000*%
D34*
X231000Y81000D02*
G03*
X231000Y81000I-5000J0D01*
G01*
X424500Y93250D02*
X445500D01*
X424500Y106750D02*
X445500D01*
Y93250D02*
Y106750D01*
X424500Y93250D02*
Y106750D01*
Y53250D02*
X445500D01*
X424500Y66750D02*
X445500D01*
Y53250D02*
Y66750D01*
X424500Y53250D02*
Y66750D01*
X36750Y159500D02*
Y180500D01*
X23250Y159500D02*
Y180500D01*
X36750D01*
X23250Y159500D02*
X36750D01*
X86750D02*
Y180500D01*
X73250Y159500D02*
Y180500D01*
X86750D01*
X73250Y159500D02*
X86750D01*
X136750D02*
Y180500D01*
X123250Y159500D02*
Y180500D01*
X136750D01*
X123250Y159500D02*
X136750D01*
X186750D02*
Y180500D01*
X173250Y159500D02*
Y180500D01*
X186750D01*
X173250Y159500D02*
X186750D01*
X236750D02*
Y180500D01*
X223250Y159500D02*
Y180500D01*
X236750D01*
X223250Y159500D02*
X236750D01*
X286750D02*
Y180500D01*
X273250Y159500D02*
Y180500D01*
X286750D01*
X273250Y159500D02*
X286750D01*
X336750D02*
Y180500D01*
X323250Y159500D02*
Y180500D01*
X336750D01*
X323250Y159500D02*
X336750D01*
X386750D02*
Y180500D01*
X373250Y159500D02*
Y180500D01*
X386750D01*
X373250Y159500D02*
X386750D01*
X436750D02*
Y180500D01*
X423250Y159500D02*
Y180500D01*
X436750D01*
X423250Y159500D02*
X436750D01*
X486750D02*
Y180500D01*
X473250Y159500D02*
Y180500D01*
X486750D01*
X473250Y159500D02*
X486750D01*
X264500Y93250D02*
X285500D01*
X264500Y106750D02*
X285500D01*
Y93250D02*
Y106750D01*
X264500Y93250D02*
Y106750D01*
X135000Y90000D02*
X235000D01*
X135000Y50000D02*
X235000D01*
Y90000D01*
X135000Y50000D02*
Y90000D01*
X264500Y66750D02*
X285500D01*
X264500Y53250D02*
X285500D01*
X264500D02*
Y66750D01*
X285500Y53250D02*
Y66750D01*
M02*
