G04*
G04 #@! TF.GenerationSoftware,Altium Limited,Altium Designer,25.1.2 (22)*
G04*
G04 Layer_Color=0*
%FSLAX44Y44*%
%MOMM*%
G71*
G04*
G04 #@! TF.SameCoordinates,AD346B73-5CDA-477C-9317-97912F4A6BFF*
G04*
G04*
G04 #@! TF.FilePolarity,Positive*
G04*
G01*
G75*
%ADD34C,0.1000*%
D34*
X355000Y75000D02*
Y85000D01*
X350000Y80000D02*
X360000D01*
X25000Y230000D02*
X35000D01*
X30000Y225000D02*
Y235000D01*
X75000Y230000D02*
X85000D01*
X80000Y225000D02*
Y235000D01*
X125000Y230000D02*
X135000D01*
X130000Y225000D02*
Y235000D01*
X175000Y230000D02*
X185000D01*
X180000Y225000D02*
Y235000D01*
X225000Y230000D02*
X235000D01*
X230000Y225000D02*
Y235000D01*
X275000Y230000D02*
X285000D01*
X280000Y225000D02*
Y235000D01*
X325000Y230000D02*
X335000D01*
X330000Y225000D02*
Y235000D01*
X375000Y230000D02*
X385000D01*
X380000Y225000D02*
Y235000D01*
X425000Y230000D02*
X435000D01*
X430000Y225000D02*
Y235000D01*
X475000Y230000D02*
X485000D01*
X480000Y225000D02*
Y235000D01*
X490000Y77300D02*
X500000D01*
X495000Y72300D02*
Y82300D01*
X65000Y55000D02*
Y65000D01*
X60000Y60000D02*
X70000D01*
M02*
