G04*
G04 #@! TF.GenerationSoftware,Altium Limited,Altium Designer,25.1.2 (22)*
G04*
G04 Layer_Color=2752767*
%FSLAX44Y44*%
%MOMM*%
G71*
G04*
G04 #@! TF.SameCoordinates,AD346B73-5CDA-477C-9317-97912F4A6BFF*
G04*
G04*
G04 #@! TF.FilePolarity,Positive*
G04*
G01*
G75*
%ADD36C,0.1270*%
%ADD37C,0.1693*%
D36*
X24920Y212220D02*
Y222380D01*
X35080D01*
Y212220D01*
X24920D01*
Y237620D02*
Y247780D01*
X35080D01*
Y237620D01*
X24920D01*
X74920Y212220D02*
Y222380D01*
X85080D01*
Y212220D01*
X74920D01*
Y237620D02*
Y247780D01*
X85080D01*
Y237620D01*
X74920D01*
X124920Y212220D02*
Y222380D01*
X135080D01*
Y212220D01*
X124920D01*
Y237620D02*
Y247780D01*
X135080D01*
Y237620D01*
X124920D01*
X174920Y212220D02*
Y222380D01*
X185080D01*
Y212220D01*
X174920D01*
Y237620D02*
Y247780D01*
X185080D01*
Y237620D01*
X174920D01*
X224920Y212220D02*
Y222380D01*
X235080D01*
Y212220D01*
X224920D01*
Y237620D02*
Y247780D01*
X235080D01*
Y237620D01*
X224920D01*
X274920Y212220D02*
Y222380D01*
X285080D01*
Y212220D01*
X274920D01*
Y237620D02*
Y247780D01*
X285080D01*
Y237620D01*
X274920D01*
X324920Y212220D02*
Y222380D01*
X335080D01*
Y212220D01*
X324920D01*
Y237620D02*
Y247780D01*
X335080D01*
Y237620D01*
X324920D01*
X374920Y212220D02*
Y222380D01*
X385080D01*
Y212220D01*
X374920D01*
Y237620D02*
Y247780D01*
X385080D01*
Y237620D01*
X374920D01*
X424920Y212220D02*
Y222380D01*
X435080D01*
Y212220D01*
X424920D01*
Y237620D02*
Y247780D01*
X435080D01*
Y237620D01*
X424920D01*
X474920Y212220D02*
Y222380D01*
X485080D01*
Y212220D01*
X474920D01*
Y237620D02*
Y247780D01*
X485080D01*
Y237620D01*
X474920D01*
X65000Y80470D02*
X59920Y90630D01*
X70080D01*
X65000Y80470D01*
X39600Y55070D02*
X34520Y65230D01*
X44680D01*
X39600Y55070D01*
X90400D02*
X85320Y65230D01*
X95480D01*
X90400Y55070D01*
X330000Y34920D02*
X332540Y37460D01*
X335080D01*
X332540Y40000D01*
X335080Y42540D01*
X332540D01*
X330000Y45080D01*
X327460Y42540D01*
X324920D01*
X327460Y40000D01*
X324920Y37460D01*
X327460D01*
X330000Y34920D01*
X355000Y95070D02*
X357540Y97610D01*
X360080D01*
X357540Y100150D01*
X360080Y102690D01*
X357540D01*
X355000Y105230D01*
X352460Y102690D01*
X349920D01*
X352460Y100150D01*
X349920Y97610D01*
X352460D01*
X355000Y95070D01*
Y64920D02*
X357540Y67460D01*
X360080D01*
X357540Y70000D01*
X360080Y72540D01*
X357540D01*
X355000Y75080D01*
X352460Y72540D01*
X349920D01*
X352460Y70000D01*
X349920Y67460D01*
X352460D01*
X355000Y64920D01*
X145000Y114920D02*
X147540Y117460D01*
X150080D01*
X147540Y120000D01*
X150080Y122540D01*
X147540D01*
X145000Y125080D01*
X142460Y122540D01*
X139920D01*
X142460Y120000D01*
X139920Y117460D01*
X142460D01*
X145000Y114920D01*
X135000Y59920D02*
X137540Y62460D01*
X140080D01*
X137540Y65000D01*
X140080Y67540D01*
X137540D01*
X135000Y70080D01*
X132460Y67540D01*
X129920D01*
X132460Y65000D01*
X129920Y62460D01*
X132460D01*
X135000Y59920D01*
X60000Y54920D02*
X62540Y57460D01*
X65080D01*
X62540Y60000D01*
X65080Y62540D01*
X62540D01*
X60000Y65080D01*
X57460Y62540D01*
X54920D01*
X57460Y60000D01*
X54920Y57460D01*
X57460D01*
X60000Y54920D01*
X115000D02*
X117540Y57460D01*
X120080D01*
X117540Y60000D01*
X120080Y62540D01*
X117540D01*
X115000Y65080D01*
X112460Y62540D01*
X109920D01*
X112460Y60000D01*
X109920Y57460D01*
X112460D01*
X115000Y54920D01*
X265000Y79920D02*
X267540Y82460D01*
X270080D01*
X267540Y85000D01*
X270080Y87540D01*
X267540D01*
X265000Y90080D01*
X262460Y87540D01*
X259920D01*
X262460Y85000D01*
X259920Y82460D01*
X262460D01*
X265000Y79920D01*
X285000Y109920D02*
X287540Y112460D01*
X290080D01*
X287540Y115000D01*
X290080Y117540D01*
X287540D01*
X285000Y120080D01*
X282460Y117540D01*
X279920D01*
X282460Y115000D01*
X279920Y112460D01*
X282460D01*
X285000Y109920D01*
X245000Y54920D02*
X247540Y57460D01*
X250080D01*
X247540Y60000D01*
X250080Y62540D01*
X247540D01*
X245000Y65080D01*
X242460Y62540D01*
X239920D01*
X242460Y60000D01*
X239920Y57460D01*
X242460D01*
X245000Y54920D01*
X255000Y169920D02*
X257540Y172460D01*
X260080D01*
X257540Y175000D01*
X260080Y177540D01*
X257540D01*
X255000Y180080D01*
X252460Y177540D01*
X249920D01*
X252460Y175000D01*
X249920Y172460D01*
X252460D01*
X255000Y169920D01*
X305000Y164920D02*
X307540Y167460D01*
X310080D01*
X307540Y170000D01*
X310080Y172540D01*
X307540D01*
X305000Y175080D01*
X302460Y172540D01*
X299920D01*
X302460Y170000D01*
X299920Y167460D01*
X302460D01*
X305000Y164920D01*
X195000Y114920D02*
X197540Y117460D01*
X200080D01*
X197540Y120000D01*
X200080Y122540D01*
X197540D01*
X195000Y125080D01*
X192460Y122540D01*
X189920D01*
X192460Y120000D01*
X189920Y117460D01*
X192460D01*
X195000Y114920D01*
X355000Y154920D02*
X357540Y157460D01*
X360080D01*
X357540Y160000D01*
X360080Y162540D01*
X357540D01*
X355000Y165080D01*
X352460Y162540D01*
X349920D01*
X352460Y160000D01*
X349920Y157460D01*
X352460D01*
X355000Y154920D01*
D37*
X500080Y90000D02*
G03*
X500080Y90000I-5080J0D01*
G01*
Y64600D02*
G03*
X500080Y64600I-5080J0D01*
G01*
M02*
